<?xml version="1.0" encoding="UTF-8" standalone="no"?>
<!DOCTYPE svg PUBLIC "-//W3C//DTD SVG 1.1//EN" "http://www.w3.org/Graphics/SVG/1.1/DTD/svg11.dtd">
<svg width="100%" height="100%" viewBox="0 0 2268 1134" version="1.1" xmlns="http://www.w3.org/2000/svg" xmlns:xlink="http://www.w3.org/1999/xlink" xml:space="preserve" xmlns:serif="http://www.serif.com/" style="fill-rule:evenodd;clip-rule:evenodd;stroke-linejoin:round;stroke-miterlimit:2;">
    <g transform="matrix(2,0,0,2,0,0)">
        <g>
            <g transform="matrix(1.1125,-0.369027,0.402229,1.21259,-20.4349,26.2037)">
                <path d="M482.232,239.89C482.232,225.298 469.275,213.451 453.316,213.451C378.309,204.851 295.762,204.706 251.774,209.479C235.815,209.479 222.859,221.326 222.859,235.918L222.859,338.039C222.859,352.631 235.815,364.479 251.774,364.479C316.569,345.548 397.007,347.788 453.316,368.451C469.275,368.451 482.232,356.603 482.232,342.011L482.232,239.89Z" style="fill:rgb(255,0,0);"/>
            </g>
            <g transform="matrix(0.662147,0.81517,-0.991639,0.805488,417.329,-193.566)">
                <path d="M479.184,247.94C498.743,215.466 463.815,216.727 454.698,192.188C444.35,164.337 484.02,146.356 441.542,146.356C432.842,146.356 362.132,138.109 299.19,137.314C277.987,137.047 225.762,247.69 225.762,247.69C225.762,247.69 201.777,273.998 193.528,280.395C182.748,288.754 381.814,405.243 397.772,405.243L426.95,374.125L453.316,368.451C469.275,368.451 485.358,349.256 477.242,334.645C461.779,306.81 456.536,285.543 479.184,247.94Z" style="fill:rgb(255,0,0);"/>
            </g>
        </g>
    </g>
</svg>
