<?xml version="1.0" encoding="UTF-8" standalone="no"?>
<!DOCTYPE svg PUBLIC "-//W3C//DTD SVG 1.1//EN" "http://www.w3.org/Graphics/SVG/1.1/DTD/svg11.dtd">
<svg width="100%" height="100%" viewBox="0 0 9450 4726" version="1.1" xmlns="http://www.w3.org/2000/svg" xmlns:xlink="http://www.w3.org/1999/xlink" xml:space="preserve" xmlns:serif="http://www.serif.com/" style="fill-rule:evenodd;clip-rule:evenodd;stroke-linejoin:round;stroke-miterlimit:2;">
    <g transform="matrix(2,0,0,2,0,0)">
        <g transform="matrix(-4.16667,0,0,4.16667,2577.54,-178.746)">
            <path d="M86.081,203.495C118.78,174.143 163.48,156.59 203.873,139.234C247.42,120.523 285.384,115.229 328,126C359.58,133.982 382.675,162.752 405.709,198.939C428.796,235.207 450.482,265.605 450.401,295.753C450.329,322.526 429.989,330.947 397.181,334.04C377.823,335.865 347.757,328.157 314,339C291.095,346.357 271.307,349.369 263.349,366.959C256.663,381.736 268.409,403.672 246.948,429.169C231.994,446.936 212.201,437.546 179.691,462.143C147.217,486.712 155.33,513.831 135.703,525.696C105.984,543.663 77.544,522.813 76.857,497.267L26.36,497.267C25.673,522.813 -2.766,543.663 -32.486,525.696C-52.113,513.831 -44,486.712 -76.474,462.143C-108.984,437.546 -128.777,446.936 -143.731,429.169C-165.192,403.672 -153.445,381.736 -160.131,366.959C-168.09,349.369 -187.877,346.357 -210.783,339C-244.539,328.157 -274.606,335.865 -293.963,334.04C-326.772,330.947 -347.111,322.526 -347.183,295.753C-347.265,265.605 -325.578,235.207 -302.492,198.939C-279.458,162.752 -256.363,133.982 -224.783,126C-182.167,115.229 -144.202,120.523 -100.655,139.234C-60.263,156.59 -15.563,174.143 17.137,203.495L86.081,203.495Z" style="fill:none;"/>
        </g>
    </g>
</svg>
